<?xml version="1.0" encoding="UTF-8" standalone="no"?>
<svg
   xmlns:dc="http://purl.org/dc/elements/1.1/"
   xmlns:cc="http://creativecommons.org/ns#"
   xmlns:rdf="http://www.w3.org/1999/02/22-rdf-syntax-ns#"
   xmlns:svg="http://www.w3.org/2000/svg"
   xmlns="http://www.w3.org/2000/svg"
   xmlns:sodipodi="http://sodipodi.sourceforge.net/DTD/sodipodi-0.dtd"
   xmlns:inkscape="http://www.inkscape.org/namespaces/inkscape"
   version="1.1"
   id="svg1415"
   xml:space="preserve"
   width="604.71997"
   height="212.95067"
   viewBox="0 0 604.71997 212.95067"
   sodipodi:docname="scanner_review_question_2.svg"
   inkscape:version="1.0.1 (3bc2e813f5, 2020-09-07, custom)"><metadata
     id="metadata1421"><rdf:RDF><cc:Work
         rdf:about=""><dc:format>image/svg+xml</dc:format><dc:type
           rdf:resource="http://purl.org/dc/dcmitype/StillImage" /><dc:title></dc:title></cc:Work></rdf:RDF></metadata><defs
     id="defs1419" /><sodipodi:namedview
     pagecolor="#ffffff"
     bordercolor="#666666"
     borderopacity="1"
     objecttolerance="10"
     gridtolerance="10"
     guidetolerance="10"
     inkscape:pageopacity="0"
     inkscape:pageshadow="2"
     inkscape:window-width="1920"
     inkscape:window-height="1016"
     id="namedview1417"
     showgrid="false"
     inkscape:zoom="2.1729066"
     inkscape:cx="302.35999"
     inkscape:cy="106.47533"
     inkscape:window-x="0"
     inkscape:window-y="28"
     inkscape:window-maximized="1"
     inkscape:current-layer="g1423" /><g
     id="g1423"
     inkscape:groupmode="layer"
     inkscape:label="scanner_review_question_2"
     transform="matrix(1.3333333,0,0,-1.3333333,0,212.95067)"><g
       id="g1425"
       transform="scale(1.5357)"><g
         id="g1427"
         transform="translate(52.923,12.653)"><g
           id="g1429"><g
             id="g1431"><g
               id="g1433"><path
                 d="M 12.45346,0 C 12.45346,6.87794 6.87794,12.45346 0,12.45346 -6.87794,12.45346 -12.45346,6.87794 -12.45346,0 c 0,-6.87794 5.57552,-12.45346 12.45346,-12.45346 6.87794,0 12.45346,5.57552 12.45346,12.45346 z"
                 style="fill:none;stroke:#000000;stroke-width:0.3985;stroke-linecap:butt;stroke-linejoin:miter;stroke-miterlimit:10;stroke-dasharray:none;stroke-opacity:1"
                 id="path1435" /><g
                 id="g1437"
                 transform="translate(-4.57,-1.398)"><g
                   id="g1439"><g
                     id="g1441"
                     transform="translate(-48.353,-11.255)"><text
                       transform="matrix(1,0,0,-1,48.353,11.255)"
                       style="font-variant:normal;font-weight:normal;font-size:9.9626px;font-family:CMMI10;-inkscape-font-specification:CMMI10;writing-mode:lr-tb;fill:#000000;fill-opacity:1;fill-rule:nonzero;stroke:none"
                       id="text1445"><tspan
                         x="0"
                         y="0"
                         id="tspan1443">s</tspan></text><text
                       transform="matrix(1,0,0,-1,53.023,9.761)"
                       style="font-variant:normal;font-weight:normal;font-size:6.9738px;font-family:CMR7;-inkscape-font-specification:CMR7;writing-mode:lr-tb;fill:#000000;fill-opacity:1;fill-rule:nonzero;stroke:none"
                       id="text1449"><tspan
                         x="0"
                         y="0"
                         id="tspan1447">0</tspan></text><g
                       id="g1451"
                       transform="translate(48.353,11.255)" /></g></g><g
                   id="g1453"
                   transform="translate(4.57,1.398)" /></g></g><g
               id="g1455"><path
                 d="m -25.52126,0 h 11.41399"
                 style="fill:none;stroke:#000000;stroke-width:0.3985;stroke-linecap:butt;stroke-linejoin:miter;stroke-miterlimit:10;stroke-dasharray:none;stroke-opacity:1"
                 id="path1457" /><g
                 id="g1459"
                 transform="translate(-14.10727)"><g
                   id="g1461"><path
                     d="M -1.19551,1.59401 C -1.09587,0.99626 0,0.09961 0.29886,0 0,-0.09961 -1.09587,-0.99626 -1.19551,-1.59401"
                     style="fill:none;stroke:#000000;stroke-width:0.31879;stroke-linecap:round;stroke-linejoin:round;stroke-miterlimit:10;stroke-dasharray:none;stroke-opacity:1"
                     id="path1463" /></g></g><g
                 id="g1465"><g
                   id="g1467"
                   transform="translate(-49.603,-3.064)"><g
                     id="g1469"><g
                       id="g1471"
                       transform="translate(-3.32,-9.589)"><text
                         transform="matrix(1,0,0,-1,3.32,9.589)"
                         style="font-variant:normal;font-weight:normal;font-size:9.9626px;font-family:CMR10;-inkscape-font-specification:CMR10;writing-mode:lr-tb;fill:#000000;fill-opacity:1;fill-rule:nonzero;stroke:none"
                         id="text1475"><tspan
                           x="0 3.9292495 7.8037047 12.785005 16.687355"
                           y="0"
                           sodipodi:role="line"
                           id="tspan1473">start</tspan></text><g
                         id="g1477"
                         transform="translate(3.32,9.589)" /></g></g><g
                     id="g1479"
                     transform="translate(49.603,3.064)" /></g></g></g><g
               id="g1481"><g
                 id="g1483"><path
                   d="m 72.58621,60.13274 c 0,6.87796 -5.57551,12.45347 -12.45347,12.45347 -6.87795,0 -12.45348,-5.57551 -12.45348,-12.45347 0,-6.87795 5.57553,-12.45348 12.45348,-12.45348 6.87796,0 12.45347,5.57553 12.45347,12.45348 z"
                   style="fill:none;stroke:#000000;stroke-width:1.39478;stroke-linecap:butt;stroke-linejoin:miter;stroke-miterlimit:10;stroke-dasharray:none;stroke-opacity:1"
                   id="path1485" /><g
                   id="g1487"><path
                     d="m 72.58621,60.13274 c 0,6.87796 -5.57551,12.45347 -12.45347,12.45347 -6.87795,0 -12.45348,-5.57551 -12.45348,-12.45347 0,-6.87795 5.57553,-12.45348 12.45348,-12.45348 6.87796,0 12.45347,5.57553 12.45347,12.45348 z"
                     style="fill:none;stroke:#ffffff;stroke-width:0.59776;stroke-linecap:butt;stroke-linejoin:miter;stroke-miterlimit:10;stroke-dasharray:none;stroke-opacity:1"
                     id="path1489" /></g></g><g
                 id="g1491"
                 transform="translate(55.562,58.734)"><g
                   id="g1493"><g
                     id="g1495"
                     transform="translate(-108.485,-71.387)"><text
                       transform="matrix(1,0,0,-1,108.485,71.387)"
                       style="font-variant:normal;font-weight:normal;font-size:9.9626px;font-family:CMMI10;-inkscape-font-specification:CMMI10;writing-mode:lr-tb;fill:#000000;fill-opacity:1;fill-rule:nonzero;stroke:none"
                       id="text1499"><tspan
                         x="0"
                         y="0"
                         id="tspan1497">s</tspan></text><text
                       transform="matrix(1,0,0,-1,113.155,69.893)"
                       style="font-variant:normal;font-weight:normal;font-size:6.9738px;font-family:CMR7;-inkscape-font-specification:CMR7;writing-mode:lr-tb;fill:#000000;fill-opacity:1;fill-rule:nonzero;stroke:none"
                       id="text1503"><tspan
                         x="0"
                         y="0"
                         id="tspan1501">1</tspan></text><g
                       id="g1505"
                       transform="translate(108.485,71.387)" /></g></g><g
                   id="g1507"
                   transform="translate(-55.562,-58.734)" /></g></g><g
               id="g1509"><path
                 d="m 157.62668,60.13274 c 0,6.87796 -5.57553,12.45347 -12.45348,12.45347 -6.87796,0 -12.45347,-5.57551 -12.45347,-12.45347 0,-6.87795 5.57551,-12.45348 12.45347,-12.45348 6.87795,0 12.45348,5.57553 12.45348,12.45348 z"
                 style="fill:none;stroke:#000000;stroke-width:0.3985;stroke-linecap:butt;stroke-linejoin:miter;stroke-miterlimit:10;stroke-dasharray:none;stroke-opacity:1"
                 id="path1511" /><g
                 id="g1513"
                 transform="translate(140.602,58.734)"><g
                   id="g1515"><g
                     id="g1517"
                     transform="translate(-193.525,-71.387)"><text
                       transform="matrix(1,0,0,-1,193.525,71.387)"
                       style="font-variant:normal;font-weight:normal;font-size:9.9626px;font-family:CMMI10;-inkscape-font-specification:CMMI10;writing-mode:lr-tb;fill:#000000;fill-opacity:1;fill-rule:nonzero;stroke:none"
                       id="text1521"><tspan
                         x="0"
                         y="0"
                         id="tspan1519">s</tspan></text><text
                       transform="matrix(1,0,0,-1,198.195,69.893)"
                       style="font-variant:normal;font-weight:normal;font-size:6.9738px;font-family:CMR7;-inkscape-font-specification:CMR7;writing-mode:lr-tb;fill:#000000;fill-opacity:1;fill-rule:nonzero;stroke:none"
                       id="text1525"><tspan
                         x="0"
                         y="0"
                         id="tspan1523">3</tspan></text><g
                       id="g1527"
                       transform="translate(193.525,71.387)" /></g></g><g
                   id="g1529"
                   transform="translate(-140.602,-58.734)" /></g></g><g
               id="g1531"><path
                 d="M 8.94682,8.94682 49.94604,49.94604"
                 style="fill:none;stroke:#000000;stroke-width:0.3985;stroke-linecap:butt;stroke-linejoin:miter;stroke-miterlimit:10;stroke-dasharray:none;stroke-opacity:1"
                 id="path1533" /><g
                 id="g1535"
                 transform="matrix(0.7071,0.7071,-0.7071,0.7071,49.94604,49.94604)"><g
                   id="g1537"><path
                     d="M -1.19551,1.59401 C -1.09587,0.99626 0,0.09961 0.29886,0 0,-0.09961 -1.09587,-0.99626 -1.19551,-1.59401"
                     style="fill:none;stroke:#000000;stroke-width:0.31879;stroke-linecap:round;stroke-linejoin:round;stroke-miterlimit:10;stroke-dasharray:none;stroke-opacity:1"
                     id="path1539" /></g></g><g
                 id="g1541"><g
                   id="g1543"
                   transform="translate(15.924,35.417)"><g
                     id="g1545"><g
                       id="g1547"
                       transform="translate(-68.847,-48.07)"><text
                         transform="matrix(1,0,0,-1,68.847,48.07)"
                         style="font-variant:normal;font-weight:normal;font-size:9.9626px;font-family:CMR10;-inkscape-font-specification:CMR10;writing-mode:lr-tb;fill:#000000;fill-opacity:1;fill-rule:nonzero;stroke:none"
                         id="text1551"><tspan
                           x="0 4.9812999 7.7489104"
                           y="0"
                           sodipodi:role="line"
                           id="tspan1549">”,’</tspan></text><g
                         id="g1553"
                         transform="translate(68.847,48.07)" /></g></g><g
                     id="g1555"
                     transform="translate(-15.924,-35.417)" /></g></g></g><g
               id="g1557"><path
                 d="m 71.34898,66.60834 c 21.34307,12.25519 41.58193,12.20657 61.60891,0.58076"
                 style="fill:none;stroke:#000000;stroke-width:0.3985;stroke-linecap:butt;stroke-linejoin:miter;stroke-miterlimit:10;stroke-dasharray:none;stroke-opacity:1"
                 id="path1559" /><g
                 id="g1561"
                 transform="matrix(0.8648,-0.50201,0.50201,0.8648,132.95787,67.18912)"><g
                   id="g1563"><path
                     d="M -1.19551,1.59401 C -1.09587,0.99626 0,0.09961 0.29886,0 0,-0.09961 -1.09587,-0.99626 -1.19551,-1.59401"
                     style="fill:none;stroke:#000000;stroke-width:0.31879;stroke-linecap:round;stroke-linejoin:round;stroke-miterlimit:10;stroke-dasharray:none;stroke-opacity:1"
                     id="path1565" /></g></g><g
                 id="g1567"><g
                   id="g1569"
                   transform="translate(71.116,81.218)"><g
                     id="g1571"><g
                       id="g1573"
                       transform="translate(-124.039,-93.871)"><text
                         transform="matrix(1,0,0,-1,124.039,93.871)"
                         style="font-variant:normal;font-weight:normal;font-size:9.9626px;font-family:CMR10;-inkscape-font-specification:CMR10;writing-mode:lr-tb;fill:#000000;fill-opacity:1;fill-rule:nonzero;stroke:none"
                         id="text1577"><tspan
                           x="0 4.9812999 7.7489104 10.516521 13.284131 17.71151 20.47912 27.951071 30.718681 33.48629 36.253902 42.342045 45.109657 50.090958 52.858566 55.626179 58.393787"
                           y="0"
                           sodipodi:role="line"
                           id="tspan1575">a...z,A...Z,0...9</tspan></text><g
                         id="g1579"
                         transform="translate(124.039,93.871)" /></g></g><g
                     id="g1581"
                     transform="translate(-71.116,-81.218)" /></g></g></g><g
               id="g1583"><path
                 d="M 134.21577,53.80658 C 112.93091,41.45058 92.69205,41.40196 72.61035,52.93289"
                 style="fill:none;stroke:#000000;stroke-width:0.3985;stroke-linecap:butt;stroke-linejoin:miter;stroke-miterlimit:10;stroke-dasharray:none;stroke-opacity:1"
                 id="path1585" /><g
                 id="g1587"
                 transform="matrix(-0.86719,0.49792,-0.49792,-0.86719,72.61035,52.93289)"><g
                   id="g1589"><path
                     d="M -1.19551,1.59401 C -1.09587,0.99626 0,0.09961 0.29886,0 0,-0.09961 -1.09587,-0.99626 -1.19551,-1.59401"
                     style="fill:none;stroke:#000000;stroke-width:0.31879;stroke-linecap:round;stroke-linejoin:round;stroke-miterlimit:10;stroke-dasharray:none;stroke-opacity:1"
                     id="path1591" /></g></g><g
                 id="g1593"><g
                   id="g1595"
                   transform="translate(95.884,34.063)"><g
                     id="g1597"><g
                       id="g1599"
                       transform="translate(-148.807,-46.716)"><text
                         transform="matrix(1,0,0,-1,148.807,46.716)"
                         style="font-variant:normal;font-weight:normal;font-size:9.9626px;font-family:CMR10;-inkscape-font-specification:CMR10;writing-mode:lr-tb;fill:#000000;fill-opacity:1;fill-rule:nonzero;stroke:none"
                         id="text1603"><tspan
                           x="0 4.9812999 11.066456"
                           y="0"
                           sodipodi:role="line"
                           id="tspan1601">”,’</tspan></text><g
                         id="g1605"
                         transform="translate(148.807,46.716)" /></g></g><g
                     id="g1607"
                     transform="translate(-95.884,-34.063)" /></g></g></g><g
               id="g1609"><path
                 d="m 157.3948,63.40712 c 19.73406,5.28777 19.73406,-11.83653 1.40499,-6.92519"
                 style="fill:none;stroke:#000000;stroke-width:0.3985;stroke-linecap:butt;stroke-linejoin:miter;stroke-miterlimit:10;stroke-dasharray:none;stroke-opacity:1"
                 id="path1611" /><g
                 id="g1613"
                 transform="matrix(-0.96593,0.25879,-0.25879,-0.96593,158.79979,56.48193)"><g
                   id="g1615"><path
                     d="M -1.19551,1.59401 C -1.09587,0.99626 0,0.09961 0.29886,0 0,-0.09961 -1.09587,-0.99626 -1.19551,-1.59401"
                     style="fill:none;stroke:#000000;stroke-width:0.31879;stroke-linecap:round;stroke-linejoin:round;stroke-miterlimit:10;stroke-dasharray:none;stroke-opacity:1"
                     id="path1617" /></g></g><g
                 id="g1619"><g
                   id="g1621"
                   transform="translate(175.713,57.696)"><g
                     id="g1623"><g
                       id="g1625"
                       transform="translate(-228.636,-70.349)"><text
                         transform="matrix(1,0,0,-1,228.636,70.349)"
                         style="font-variant:normal;font-weight:normal;font-size:9.9626px;font-family:CMR10;-inkscape-font-specification:CMR10;writing-mode:lr-tb;fill:#000000;fill-opacity:1;fill-rule:nonzero;stroke:none"
                         id="text1629"><tspan
                           x="0 4.9812999 7.7489104 10.516521 13.284131 17.71151 20.47912 27.951071 30.718681 33.48629 36.253902 42.342045 45.109657 50.090958 52.858566 55.626179 58.393787"
                           y="0"
                           sodipodi:role="line"
                           id="tspan1627">a...z,A...Z,0...9</tspan></text><g
                         id="g1631"
                         transform="translate(228.636,70.349)" /></g></g><g
                     id="g1633"
                     transform="translate(-175.713,-57.696)" /></g></g></g></g></g><g
           id="g1635"
           transform="translate(-52.923,-12.653)" /></g></g></g></svg>
